<svg xmlns="http://www.w3.org/2000/svg" aria-hidden="true" style="position:absolute;width:0;height:0;overflow:hidden">
  <defs>
    <symbol id="icon-arrow" viewBox="0 0 32 32">
      <path fill="#adb9b0" d="M25 8v13a.997.997 0 0 1-1 1 .997.997 0 0 1-1-1V10.414L8.707 24.708a1 1 0 1 1-1.414-1.414L21.587 9.001H11.001a.997.997 0 0 1-1-1 .997.997 0 0 1 1-1h13a.997.997 0 0 1 1 1z" style="fill:var(--color1, #adb9b0)"/>
    </symbol>
    <symbol id="icon-close" viewBox="0 0 32 32">
      <path fill="#fff" d="m8.532 25.333-1.867-1.867 7.467-7.467-7.467-7.467 1.867-1.867 7.467 7.467 7.467-7.467 1.867 1.867-7.467 7.467 7.467 7.467-1.867 1.867-7.467-7.467-7.467 7.467z" style="fill:var(--color2, #fff)"/>
    </symbol>
    <symbol id="icon-menu" viewBox="0 0 32 32">
      <path fill="#fff" d="M4 24v-2.667h24V24H4zm0-6.667v-2.667h24v2.667H4zm0-6.666V8h24v2.667H4z" style="fill:var(--color2, #fff)"/>
    </symbol>
    <symbol id="icon-play1" viewBox="0 0 32 32">
      <path fill="#cbf3ff" d="M18.95 1.209 8.827 7.053l5.845 10.123 10.123-5.844-.597-1.033-.258-.471-.012.004-4.978-8.623zm-1.289 2.093-3.142 5.634a22.225 22.225 0 0 1-3.51-1.793l6.652-3.841zm1.245.166 3.952 6.846a19.438 19.438 0 0 1-7.229-.971l3.276-5.875zM3.18 5.073l-1.741 5.426 4.644 3.195 1.741-5.426L3.18 5.073zm.633 1.853 2.018 1.389-2.765.937.746-2.326zm24.114 1.396-2.884 1.089.566 1.035 1.26-.476.187 2.716-2.496.942-.055-.797-1.126.65.124 1.794 4.779-1.804-.355-5.15zm-16.909.19c1.994 1.164 4.082 2.008 6.267 2.498l-2.47 4.078-3.797-6.576zm-4.788.901-.779 2.429-2.108-1.45 2.887-.979zm12.278 1.832c1.189.192 2.406.28 3.65.26l-5.855 3.38 2.204-3.64zM1.324 14.047l1.477 10.804 10.439 3.093-.125-.912-1.47-.779-6.646-1.969 3.723-1.631 2.15-3.408.434 3.173 1.005-1.271-.548-4.007-10.439-3.093zm1.402 1.633 7.594 2.25-2.395 3.796L3.8 23.534l-1.074-7.853zm19.567.326-5.557 1.489-5.699 7.124 12.335 6.435 7.416-11.729-8.496-3.32zm-.85 1.436 1.956 3.457-5.381 1.417.157-3.999 3.268-.876zm1.349.012 5.511 2.154-3.736.984-1.775-3.138zm-5.815 1.609-.14 3.565-3.436.905 3.576-4.47zm11.52 1.702L23.9 28.034l.871-6.288 3.725-.981zm-4.949 1.303-.875 6.313-4.209-4.975 5.084-1.339zm-6.335 1.669 4.221 4.989-7.77-4.054 3.55-.935z" style="fill:var(--color3, #cbf3ff)"/>
    </symbol>
    <symbol id="icon-play2" viewBox="0 0 32 32">
      <path fill="#ffe4b9" d="m12.098 1.627 2.2 5.249c.93.479 2.07.418 2.968-.08l2.518-5.374c-2.849-.454-5.282-.309-7.685.204zm8.581.475-2.002 4.461c.784.772 2.327 1.179 2.94.966l1.948-4.043c-.776-.525-1.714-.993-2.885-1.384zm-9.678-.123c-1.363.409-2.561 1.022-3.506 1.787.934.99 1.804 2.136 2.387 3.302 1.53.383 2.217-.428 2.967-1.159l-1.848-3.93zM6.36 4.156c-2.284 2.057-4.158 4.776-4.879 7.826l4.122.21c.75-1.908 1.534-3.518 3.389-4.547a11.193 11.193 0 0 0-2.633-3.488zm18.282-.018-1.991 3.815c2.034 1.313 2.723 2.584 3.287 4.312l4.529-.527c-.601-3.493-2.638-6.69-5.826-7.601zm-3.265 8.575c.297.809-.99 1.856-.567 2.464-.251.053-.555.103-.899-.56-.07.781.136 1.225.761 1.826-.168.049-.503.172-.755.035-.078.462.679.866 1.295.927l.524-.136c-.381-.069-.493-.207-.664-.383.186-.082.785-.445.134-.922.79-.172.377-.931.259-1.366.47.487.953 1.409 1.366.443.261.788.41.758.851.569.066.575-.185.924-.549 1.407l.781-.312c.376-.314 1.26-1.594.402-2.219.163.778-.348.899-1.167-.684-.274 1.923-.765-.468-1.772-1.09zm-20.104.132v4.14l4.553-.741.099-3.117-4.652-.282zm8.968.022c.233.545-.905 2.827-1.179.903-.819 1.583-1.494 1.516-1.332.739-.858.625-.084 2.091.292 2.405l.702.188c-.365-.483-.723-.851-.657-1.426.441.188.656.35.917-.438.414.966 1.082-.274 1.553-.761-.097.718-.393 1.402.456 1.575-.571.63.119 1.249-.793 1.426l.525.136c.616-.061 1.274-.663 1.197-1.125-.252.136-.489.211-.656.162.625-.6.666-1.341.596-2.122-.344.662-.495.734-.735.856.423-.608-.37-2.018-.885-2.519zm20.469.073-4.848.355.072 4.949 4.72.178.056-5.483zM6.145 17.488l-4.997.611.075 6.235 5.221.072-.299-6.918zm17.541.459-1.771.439 1.341 4.27 1.008-.315-.578-4.394zm-15.435.21-.578 4.394 1.008.315 1.341-4.27-1.771-.439zm17.516 1.237v5.224l4.948-.502.143-4.722h-5.091zm5.288 5.728-5.558.622-.073 5.045 5.667.037-.036-5.704zm-24.739.125-5.115.145-.291 5.387h5.625l-.218-5.532z" style="fill:var(--color4, #ffe4b9)"/>
    </symbol>
    <symbol id="icon-play3" viewBox="0 0 32 32">
      <path fill="#edd7ff" d="M9.287 1.57c-2.224-.006-3.91.619-5.032 1.663C3.096 4.311 2.57 5.799 2.563 7.336c-.012 2.761 1.092 4.346 2.394 5.121s2.717.781 3.325.777c3.08-.022 5.232-2.427 5.3-4.704.03-1.006-.331-2.103-1.06-2.987S10.652 4 9.23 4.009c-2.414.015-4 1.835-4.04 3.685-.024 1.131.452 2 1.134 2.511s1.515.69 2.259.684c1.455-.011 2.439-1.042 2.431-2.126-.004-.542-.257-1.095-.741-1.475s-1.171-.58-2.009-.55l.045 1.151c.621-.023.998.123 1.214.293s.299.37.301.589c.003.438-.326.96-1.25.967-.531.004-1.115-.139-1.522-.443s-.69-.743-.673-1.577c.026-1.239 1.048-2.546 2.857-2.557 1.05-.006 1.812.444 2.354 1.101s.821 1.532.8 2.235c-.047 1.571-1.69 3.569-4.119 3.586-.567.004-1.723-.029-2.693-.606S3.74 9.822 3.751 7.342c.006-1.291.43-2.444 1.326-3.277s2.298-1.383 4.399-1.34c2.691.056 3.944 1.117 4.649 2.466s.773 3.049.704 4.199c-.072 1.193-.551 2.105-1.308 2.86s-1.806 1.335-2.976 1.752c-2.34.836-5.155 1.009-6.83.859-.169.856-.082 1.425 0 2.28 1.675-.151 4.49.023 6.83.859 1.17.418 2.219.998 2.976 1.753s1.235 1.666 1.307 2.86c.07 1.151.002 2.85-.704 4.199s-1.958 2.41-4.649 2.466c-2.101.044-3.503-.506-4.399-1.34s-1.321-1.987-1.326-3.277c-.011-2.479.857-3.558 1.827-4.135s2.126-.61 2.693-.606c2.429.017 4.072 2.015 4.119 3.586.021.703-.259 1.578-.8 2.235s-1.303 1.108-2.354 1.101c-1.809-.011-2.831-1.318-2.857-2.557-.018-.833.266-1.272.673-1.577s.991-.447 1.522-.443c.923.007 1.253.529 1.25.966-.002.219-.085.419-.301.589s-.592.316-1.214.293l-.045 1.151c.837.031 1.525-.169 2.009-.549s.737-.933.741-1.475c.008-1.084-.975-2.116-2.431-2.126-.744-.006-1.577.173-2.259.684s-1.158 1.38-1.134 2.511c.039 1.85 1.626 3.67 4.04 3.685 1.422.009 2.563-.65 3.292-1.534s1.09-1.981 1.06-2.987c-.068-2.277-2.22-4.682-5.3-4.704-.607-.004-2.023.002-3.325.776s-2.406 2.36-2.394 5.121c.007 1.538.533 3.025 1.692 4.103s2.918 1.709 5.249 1.661c3.031-.063 4.819-1.439 5.686-3.097.501-.957.724-1.987.81-2.928.086.941.309 1.97.81 2.928.867 1.659 2.655 3.034 5.686 3.097 2.331.048 4.09-.583 5.249-1.661s1.685-2.566 1.692-4.103c.012-2.761-1.092-4.346-2.394-5.121s-2.717-.781-3.325-.776c-3.08.022-5.232 2.427-5.3 4.704-.03 1.006.331 2.103 1.06 2.987s1.869 1.543 3.292 1.534c2.414-.015 4-1.835 4.04-3.685.024-1.131-.452-2-1.134-2.511s-1.515-.69-2.259-.684c-1.455.011-2.439 1.042-2.431 2.126.004.542.257 1.095.741 1.475s1.171.58 2.009.549l-.045-1.151c-.622.023-.998-.123-1.214-.293s-.299-.37-.301-.589c-.003-.438.326-.96 1.25-.967.531-.004 1.115.139 1.522.443s.69.743.672 1.577c-.026 1.239-1.047 2.546-2.857 2.557-1.05.006-1.812-.444-2.354-1.101s-.821-1.532-.8-2.235c.047-1.571 1.69-3.569 4.119-3.586.567-.004 1.723.029 2.693.606s1.838 1.655 1.827 4.135c-.006 1.291-.43 2.444-1.326 3.277s-2.298 1.383-4.399 1.34c-2.691-.056-3.944-1.117-4.649-2.466s-.773-3.049-.704-4.199c.072-1.193.551-2.105 1.308-2.86s1.806-1.334 2.976-1.753c2.34-.836 5.155-1.009 6.83-.859.169-.856.082-1.425 0-2.28-1.675.151-4.49-.023-6.83-.859-1.17-.418-2.219-.998-2.976-1.752s-1.235-1.667-1.308-2.86c-.07-1.151-.002-2.85.704-4.199s1.958-2.41 4.649-2.466c2.101-.044 3.503.506 4.399 1.34s1.321 1.987 1.326 3.277c.011 2.479-.858 3.558-1.827 4.135s-2.126.61-2.693.606c-2.429-.018-4.073-2.015-4.119-3.586-.021-.703.259-1.578.8-2.235s1.303-1.107 2.354-1.101c1.809.011 2.831 1.318 2.857 2.557.018.833-.266 1.272-.672 1.577s-.991.447-1.522.443c-.923-.007-1.253-.529-1.25-.966.002-.219.085-.419.301-.589s.592-.316 1.214-.293l.045-1.151c-.837-.031-1.525.169-2.009.55s-.737.933-.741 1.475c-.008 1.084.975 2.116 2.431 2.126.744.006 1.577-.173 2.259-.684s1.158-1.38 1.134-2.511c-.039-1.85-1.626-3.67-4.04-3.685-1.422-.009-2.563.65-3.292 1.534s-1.09 1.981-1.06 2.987c.068 2.277 2.22 4.682 5.3 4.704.607.004 2.023-.002 3.325-.776s2.406-2.36 2.394-5.121c-.007-1.538-.533-3.025-1.692-4.103s-2.918-1.709-5.249-1.661c-3.031.063-4.819 1.439-5.686 3.097-.501.957-.724 1.987-.81 2.928-.086-.941-.309-1.97-.81-2.928-.867-1.659-2.655-3.034-5.686-3.097-.072-.002-.145-.002-.217-.002zM16 13.952c1.122 0 2.199.216 2.993.6s1.24.905 1.24 1.448-.446 1.064-1.24 1.448c-.794.384-1.87.6-2.993.6s-2.199-.216-2.993-.6-1.24-.905-1.24-1.448.446-1.064 1.24-1.448c.794-.384 1.87-.6 2.993-.6z" style="fill:var(--color5, #edd7ff)"/>
    </symbol>
    <symbol id="icon-play4" viewBox="0 0 32 32">
      <path fill="#ecffbc" d="M20.106 1.358S10.468 5.311 9.137 9.712c-.762 2.525 1.512 6.844 2.756 8.931h2.837c1.244-2.462-.094-5.275-1.444-6.838 0 0 3.662 2.344 4.075 4.269.156.725-.4 1.887-.775 2.569h2.788c1.313-1.044 3.019-2.694 2.819-4.063-.4-2.775-4.5-3.531-5.138-6.262-.75-3.206 3.05-6.961 3.05-6.961zM4 12.05c-.8 0-1.438.637-1.438 1.438S3.2 14.926 4 14.926c.8 0 1.438-.637 1.438-1.438S4.8 12.05 4 12.05zm24 .063c-.8 0-1.438.637-1.438 1.438s.637 1.438 1.438 1.438c.8 0 1.438-.637 1.438-1.438s-.637-1.438-1.438-1.438zM3.438 15.988v12.5h1.125v-12.5c-.181.038-.369.063-.563.063s-.381-.025-.563-.063zm24 .062v12.5h1.125v-12.5c-.181.038-.369.063-.563.063s-.381-.025-.563-.063zm-16.875 3.719v1.875h10.875v-1.875H10.563zm1.887 3-1.75 7.875h10.6l-1.75-7.875h-7.1zm1.006 2.3 1.087.275-.825 3.3h4.563l-.825-3.3 1.088-.275 1.175 4.7h-7.437l1.175-4.7zM2 29.425v1.125h4v-1.125H2zm24 .063v1.125h4v-1.125h-4z" style="fill:var(--color6, #ecffbc)"/>
    </symbol>
    <symbol id="icon-playstore" viewBox="0 0 32 32">
      <path fill="#ea4335" d="M15.066 15.282 2.003 29.341l.002.009C2.406 30.877 3.78 32 5.412 32c.653 0 1.265-.179 1.79-.493l.042-.025 14.703-8.603-6.881-7.597z" style="fill:var(--color7, #ea4335)"/>
      <path fill="#fbbc04" d="m28.28 12.888-.012-.009-6.348-3.731-7.151 6.453 7.177 7.276 6.314-3.694a3.589 3.589 0 0 0 1.859-3.154 3.583 3.583 0 0 0-1.838-3.142z" style="fill:var(--color8, #fbbc04)"/>
      <path fill="#4285f4" d="M2.003 2.658a3.54 3.54 0 0 0-.12.921v24.843c0 .319.042.627.121.919l13.51-13.699L2.003 2.658z" style="fill:var(--color9, #4285f4)"/>
      <path fill="#34a853" d="m15.163 16 6.76-6.854L7.237.512A3.492 3.492 0 0 0 5.414.001c-1.632 0-3.008 1.126-3.409 2.654l-.001.004 13.159 13.342z" style="fill:var(--color10, #34a853)"/>
    </symbol>
  </defs>
</svg>
